<?xml version="1.0" encoding="UTF-8"?>
<svg width="46px" height="46px" viewBox="0 0 46 46" version="1.1" xmlns="http://www.w3.org/2000/svg" xmlns:xlink="http://www.w3.org/1999/xlink">
    <title>Images/Logos/Loyalty/zooPoints</title>
    <defs>
        <path d="M41.3636879,15.8531463 C40.6695293,13.0935031 39.4275298,10.551637 37.7669934,8.35038767 C36.8278376,7.11144059 35.755975,5.97491675 34.5684193,4.97484384 C33.3094061,3.90603505 31.9244916,2.98388547 30.4340922,2.23187419 C28.6510573,1.33354398 26.7217046,0.683615682 24.6936725,0.32292249 C23.5231305,0.115353766 22.3185611,0.00646525533 21.0867698,0 L20.9982986,0 C18.6061735,0 16.3059224,0.401186107 14.1655999,1.13618355 C13.1345702,1.49007122 12.1375679,1.92256277 11.1882038,2.42923462 C9.96662076,3.07235739 8.81649518,3.83457696 7.7548408,4.70228228 C5.68597586,6.38324867 3.9437738,8.45213037 2.64052499,10.8003792 C1.22158308,13.3422453 0.316454671,16.2138395 0.0714575063,19.2729261 C0.0238191688,19.8411881 5.19005129e-14,20.4196583 5.19005129e-14,20.9984688 L5.19005129e-14,21.0866004 C0.0136109536,24.4485332 0.816657215,27.619911 2.23559913,30.4305957 C2.98420157,31.9210072 3.90634368,33.3093357 4.97480353,34.5683591 C5.97861136,35.7562647 7.11172324,36.8277957 8.35372276,37.7635564 C10.5552945,39.4309117 13.0937373,40.6695185 15.8533582,41.3636828 L15.8567609,41.3636828 C17.5036863,41.7788202 19.2220692,42 20.9982986,42 C21.2705177,42 21.539334,41.9935347 21.8081504,41.9863889 C22.1212023,41.9727779 22.424046,41.9527016 22.7268897,41.9285419 C25.7825488,41.6804803 28.65446,40.778407 31.1997083,39.3597939 C33.5441951,38.0531318 35.6096573,36.3139781 37.2940128,34.2450964 C38.1617111,33.1800306 38.9239245,32.0298957 39.567042,30.808643 C40.0740501,29.8592713 40.5061978,28.8619206 40.8600826,27.8342853 C41.5134084,25.9355419 41.9047233,23.9142989 41.986389,21.8113895 C41.9931945,21.542571 42,21.2703498 42,20.9984688 C42,19.7391051 41.8877096,18.5008385 41.6767399,17.3027246 C41.5882687,16.8130666 41.4861865,16.3298739 41.3636879,15.8531463 Z" id="path-1"></path>
        <filter x="-7.1%" y="-7.1%" width="114.3%" height="114.3%" filterUnits="objectBoundingBox" id="filter-3">
            <feOffset dx="0" dy="0" in="SourceAlpha" result="shadowOffsetOuter1"></feOffset>
            <feGaussianBlur stdDeviation="1" in="shadowOffsetOuter1" result="shadowBlurOuter1"></feGaussianBlur>
            <feColorMatrix values="0 0 0 0 0   0 0 0 0 0   0 0 0 0 0  0 0 0 0.12 0" type="matrix" in="shadowBlurOuter1"></feColorMatrix>
        </filter>
    </defs>
    <g id="Symbols" stroke="none" stroke-width="1" fill="none" fill-rule="evenodd">
        <g id="BP-Box-CatalogLHS--lg" transform="translate(-127.000000, 2.000000)">
            <g id="BP-icon-large" transform="translate(129.000000, 0.000000)">
                <mask id="mask-2" fill="white">
                    <use xlink:href="#path-1"></use>
                </mask>
                <g id="Background-circle">
                    <use fill="black" fill-opacity="1" filter="url(#filter-3)" xlink:href="#path-1"></use>
                    <use fill="#FFFFFF" fill-rule="evenodd" xlink:href="#path-1"></use>
                </g>
                <path d="M36.0495531,27.5896792 C35.5245884,28.8021882 34.8539883,29.9334116 34.0614609,30.9694633 C32.4425375,33.0896606 30.3155836,34.8068171 27.8634904,35.9312668 C27.768658,35.9752965 27.6805994,36.0162779 27.5857671,36.0569207 L27.5823802,36.0569207 C25.5638062,36.9442876 23.3386332,37.431662 20.9983066,37.431662 C20.5647873,37.431662 20.1380418,37.4147275 19.7146832,37.3811973 L19.7112963,37.3811973 C19.176171,37.3405545 18.6444325,37.2724779 18.1262415,37.1810317 C15.7249513,36.7576696 13.5031651,35.8127254 11.5828103,34.4616924 C10.3093475,33.5773737 9.17135945,32.5105013 8.199328,31.3017179 C7.15278543,30.0041978 6.2992944,28.5481709 5.68627108,26.9698771 C5.300168,25.9809033 5.00889725,24.9441742 4.81923258,23.8739149 C4.6634366,23.0000956 4.57876487,22.0995198 4.56860426,21.1816708 C4.56521739,21.120368 4.56521739,21.0594038 4.56521739,20.9950528 C4.56521739,19.1390335 4.87342249,17.3507521 5.44580337,15.6877858 C5.62530744,15.1563818 5.83190646,14.6347997 6.06560043,14.1298134 C7.19342786,11.6810872 8.90718366,9.55445478 11.0273638,7.93517951 C12.1247094,7.09522915 13.3304348,6.39109335 14.6208319,5.8488512 C14.9696795,5.70355334 15.3253007,5.56435189 15.6876957,5.44242361 C16.3989382,5.19856706 17.130502,5.00212705 17.8823869,4.8598774 C18.8916739,4.66682429 19.9348296,4.56521739 20.9983066,4.56521739 C23.1049392,4.56521739 25.1201263,4.96148429 26.9693569,5.68661886 C28.5476379,6.29930845 30.0073785,7.1494195 31.3011626,8.19969613 C32.5102748,9.16800987 33.5771386,10.3060071 34.4644984,11.5794803 C36.1071299,13.9167776 37.1502856,16.697081 37.3839796,19.7080321 C37.4178483,20.1313942 37.4347826,20.5618687 37.4347826,20.9950528 C37.4347826,21.0594038 37.4347826,21.120368 37.4313957,21.1816708 C37.4178483,22.1841922 37.3196291,23.1626666 37.1367381,24.1143846 C36.9199785,25.2459467 36.5846784,26.3395756 36.1477723,27.3763047 C36.1172905,27.4474295 36.0868087,27.5185544 36.05294,27.5859536 L36.0495531,27.5896792" id="Green-circle" fill="#286400"></path>
                <path d="M28.8020992,27.8492145 C26.9334589,28.5998712 25.0648186,28.2245429 24.5042265,27.0985578 C23.9436344,25.8787406 25.0648186,24.3774271 26.8400269,23.6267703 C28.7086672,22.8761136 30.5773075,23.251442 31.1378995,24.3774271 C31.6984916,25.5972443 30.6707395,27.0985578 28.8020992,27.8492145 Z M24.8779546,20.7179755 C24.1304985,19.4981583 25.0648186,17.6215165 26.9334589,16.4955313 C28.8020992,15.3695462 30.9510355,15.5572104 31.6984916,16.7770276 C32.4459477,17.9968448 31.5116276,19.8734867 29.6429873,20.9994718 C27.680915,22.1254569 25.6254107,22.0316248 24.8779546,20.7179755 Z M22.5421542,27.1923899 C21.047242,32.0716586 18.6180096,32.3531549 17.2165294,31.6963303 C16.6559373,31.414834 16.2822093,30.9456735 16.0019132,30.2888489 C15.9084812,30.1950168 15.9084812,30.1011847 15.8150492,30.0073526 C15.6281852,29.6320242 15.5347531,29.350528 15.3478891,28.9751996 C15.2544571,28.8813675 15.2544571,28.7875354 15.1610251,28.6937033 C15.0675931,28.5060391 14.974161,28.4122071 14.880729,28.2245429 C14.693865,28.0368787 14.600433,27.7553824 14.3201369,27.5677182 L14.3201369,27.5677182 C14.1332729,27.380054 13.9464089,27.2862219 13.8529769,27.0985578 C13.0120887,26.5355652 11.8909046,26.1602368 11.1434485,25.6910764 C11.1434485,25.6910764 11.0500164,25.5972443 11.0500164,25.5972443 C10.9565844,25.5034122 10.8631524,25.4095801 10.6762884,25.315748 C10.4894244,25.1280838 10.3959923,24.9404196 10.3025603,24.7527555 C9.64853623,23.3452741 9.92883227,20.9056397 14.787297,19.4043262 C19.6457618,17.9030127 20.95381,19.216662 21.7946981,20.0611508 C21.7946981,20.0611508 21.7946981,20.0611508 21.7946981,20.0611508 C22.7290182,20.9994718 24.0370664,22.3131211 22.5421542,27.1923899 Z M21.327538,17.152356 C20.1129218,16.4016993 19.9260578,14.2435611 21.047242,12.3669193 C22.1684262,10.4902774 24.0370664,9.55195652 25.2516826,10.3026133 C26.4662988,11.05327 26.6531628,13.2114081 25.5319787,15.08805 C24.4107945,16.9646918 22.5421542,17.9030127 21.327538,17.152356 Z M14.974161,17.5276844 C13.7595449,16.9646918 13.4792488,15.08805 14.2267049,13.2114081 C14.974161,11.3347663 16.5625053,10.3026133 17.6836895,10.8656058 C18.8983057,11.4285984 19.1786017,13.3052402 18.4311456,15.1818821 C17.6836895,17.0585239 16.1887772,17.9968448 14.974161,17.5276844 Z" id="Shape" fill="#FFD647"></path>
            </g>
        </g>
    </g>
</svg>